<?xml version="1.0" encoding="utf-8"?><svg xmlns="http://www.w3.org/2000/svg" xmlns:xlink="http://www.w3.org/1999/xlink" width="1920" height="869" preserveAspectRatio="xMidYMid" viewBox="0 0 1920 869" style="z-index:1;margin-right:-2px;display:block;background-color:rgb(153, 153, 153);animation-play-state:paused" ><g transform="translate(960,434.5) scale(1,1) translate(-960,-434.5)" style="transform:matrix(1, 0, 0, 1, 0, 0);animation-play-state:paused" ><linearGradient id="lg-0.09075484920605614" x1="0" x2="0.5" y1="0" y2="0" gradientUnits="objectBoundingBox" style="animation-play-state:paused" ><stop stop-color="#ffef00" offset="0" style="animation-play-state:paused" ></stop>

  
<stop stop-color="#ff9500" offset="1" style="animation-play-state:paused" ></stop></linearGradient>
<path d="M -914.382 869 Q -821.662 676.255 -775.658 472.577 T -373.064 114.958 T 253.992 -168.85 T 1044.13 -351.066 T 1920 -413.853 T 2795.87 -351.066 T 3586.01 -168.85 T 4213.06 114.958 T 4615.66 472.577 T 4754.38 869" fill="url(#lg-0.09075484920605614)" opacity="0.9" style="opacity:0.9;animation-play-state:paused" ></path>
<path d="M -630.944 869 Q -533.231 671.892 -477.103 474.115 T -34.1366 126.858 T 644.528 -130.885 T 1477.03 -268.027 T 2362.97 -268.027 T 3195.47 -130.885 T 3874.14 126.858 T 4317.1 474.115 T 4470.94 869" fill="url(#lg-0.09075484920605614)" opacity="0.9" style="opacity:0.9;animation-play-state:paused" ></path>
<path d="M -347.506 869 Q -232.133 679.147 -174.902 476.259 T 316.631 143.309 T 1052.26 -79.1615 T 1920 -157.283 T 2787.74 -79.1615 T 3523.37 143.309 T 4014.9 476.259 T 4187.51 869" fill="url(#lg-0.09075484920605614)" opacity="0.9" style="opacity:0.9;animation-play-state:paused" ></path>
<path d="M -64.0677 869 Q 93.3069 674.726 132.417 479.374 T 682.954 166.917 T 1478.5 -6.48263 T 2361.5 -6.48263 T 3157.05 166.917 T 3707.58 479.374 T 3904.07 869" fill="url(#lg-0.09075484920605614)" opacity="0.9" style="opacity:0.9;animation-play-state:paused" ></path>
<path d="M 219.371 869 Q 375.57 681.656 447.212 484.144 T 1069.69 202.41 T 1920 99.288 T 2770.31 202.41 T 3392.79 484.144 T 3620.63 869" fill="url(#lg-0.09075484920605614)" opacity="0.9" style="opacity:0.9;animation-play-state:paused" ></path>
<path d="M 502.809 869 Q 663.037 682.624 773.468 491.979 T 1482.06 258.967 T 2357.94 258.967 T 3066.53 491.979 T 3337.19 869" fill="url(#lg-0.09075484920605614)" opacity="0.9" style="opacity:0.9;animation-play-state:paused" ></path>
<path d="M 786.247 869 Q 958.296 682.72 1118.32 506.154 T 1920 355.859 T 2721.68 506.154 T 3053.75 869" fill="url(#lg-0.09075484920605614)" opacity="0.9" style="opacity:0.9;animation-play-state:paused" ></path>
<path d="M 1069.69 869 Q 1253.73 701.746 1494.84 535.705 T 2345.16 535.705 T 2770.31 869" fill="url(#lg-0.09075484920605614)" opacity="0.9" style="opacity:0.9;animation-play-state:paused" ></path>
<path d="M 1353.12 869 Q 1592.64 706.141 1920 612.429 T 2486.88 869" fill="url(#lg-0.09075484920605614)" opacity="0.9" style="opacity:0.9;animation-play-state:paused" ></path>
<path d="M 1636.56 869 Q 1920 788.651 2203.44 869" fill="url(#lg-0.09075484920605614)" opacity="0.9" style="opacity:0.9;animation-play-state:paused" ></path></g></svg>